<svg height="200" width="200" xmlns="http://www.w3.org/2000/svg" style="height: 200px; width: 200px;">
   <path d="M 0 0 L 8 0 L 8 8 L 0 8 Z" fill="#000000" transform="matrix(1,0,0,1,0,0)"></path>
   <path d="M 0 0 L 8 0 L 8 8 L 0 8 Z" fill="#000000" transform="matrix(1,0,0,1,8,0)"></path>
   <path d="M 0 0 L 8 0 L 8 8 L 0 8 Z" fill="#000000" transform="matrix(1,0,0,1,16,0)"></path>
   <path d="M 0 0 L 8 0 L 8 8 L 0 8 Z" fill="#000000" transform="matrix(1,0,0,1,24,0)"></path>
   <path d="M 0 0 L 8 0 L 8 8 L 0 8 Z" fill="#000000" transform="matrix(1,0,0,1,32,0)"></path>
   <path d="M 0 0 L 8 0 L 8 8 L 0 8 Z" fill="#000000" transform="matrix(1,0,0,1,40,0)"></path>
   <path d="M 0 0 L 8 0 L 8 8 L 0 8 Z" fill="#000000" transform="matrix(1,0,0,1,48,0)"></path>
   <path d="M 0 0 L 8 0 L 8 8 L 0 8 Z" fill="transparent" transform="matrix(1,0,0,1,56,0)"></path
      >
   <path d="M 0 0 L 8 0 L 8 8 L 0 8 Z" fill="#000000" transform="matrix(1,0,0,1,64,0)"></path>
   <path d="M 0 0 L 8 0 L 8 8 L 0 8 Z" fill="transparent" transform="matrix(1,0,0,1,72,0)"></path>
   <path d="M 0 0 L 8 0 L 8 8 L 0 8 Z" fill="#000000" transform="matrix(1,0,0,1,80,0)"></path>
   <path d="M 0 0 L 8 0 L 8 8 L 0 8 Z" fill="#000000" transform="matrix(1,0,0,1,88,0)"></path>
   <path d="M 0 0 L 8 0 L 8 8 L 0 8 Z" fill="#000000" transform="matrix(1,0,0,1,96,0)"></path>
   <path d="M 0 0 L 8 0 L 8 8 L 0 8 Z" fill="#000000" transform="matrix(1,0,0,1,104,0)"></path>
   <path d="M 0 0 L 8 0 L 8 8 L 0 8 Z" fill="#000000" transform="matrix(1,0,0,1,112,0)"></path>
   <path d="M 0 0 L 8 0 L 8 8 L 0 8 Z" fill="transparent" transform="matrix(1,0,0,1,120,0)"></path>
   <path d="M 0 0 L 8 0 L 8 8 L 0 8 Z" fill="transparent" transform="matrix(1,0,0,1,128,0)"></path>
   <path d="M 0 0 L 8 0 L 8 8 L 0 8 Z" fill="transparent" transform="matrix(1,0,0,1,136,0)"></path>
   <path d="M 0 0 L 8 0 L 8 8 L 0 8 Z" fill="#000000" transform="matrix(1,0,0,1,144,0)"></path>
   <path d="M 0 0 L 8 0 L 8 8 L 0 8 Z" fill="#000000" transform="matrix(1,0,0,1,152,0)"></path>
   <path d="M 0 0 L 8 0 L 8 8 L 0 8 Z" fill="#000000" transform="matrix(1,0,0,1,160,0)"></path>
   <path d="M 0 0 L 8 0 L 8 8 L 0 8 Z" fill="#000000" transform="matrix(1,0,0,1,168,0)"></path
      >
   <path d="M 0 0 L 8 0 L 8 8 L 0 8 Z" fill="#000000" transform="matrix(1,0,0,1,176,0)"></path>
   <path d="M 0 0 L 8 0 L 8 8 L 0 8 Z" fill="#000000" transform="matrix(1,0,0,1,184,0)"></path>
   <path d="M 0 0 L 8 0 L 8 8 L 0 8 Z" fill="#000000" transform="matrix(1,0,0,1,192,0)"></path>
   <path d="M 0 0 L 8 0 L 8 8 L 0 8 Z" fill="#000000" transform="matrix(1,0,0,1,0,8)"></path>
   <path d="M 0 0 L 8 0 L 8 8 L 0 8 Z" fill="transparent" transform="matrix(1,0,0,1,8,8)"></path>
   <path d="M 0 0 L 8 0 L 8 8 L 0 8 Z" fill="transparent" transform="matrix(1,0,0,1,16,8)"></path>
   <path d="M 0 0 L 8 0 L 8 8 L 0 8 Z" fill="transparent" transform="matrix(1,0,0,1,24,8)"></path>
   <path d="M 0 0 L 8 0 L 8 8 L 0 8 Z" fill="transparent" transform="matrix(1,0,0,1,32,8)"></path>
   <path d="M 0 0 L 8 0 L 8 8 L 0 8 Z" fill="transparent" transform="matrix(1,0,0,1,40,8)"></path>
   <path d="M 0 0 L 8 0 L 8 8 L 0 8 Z" fill="#000000" transform="matrix(1,0,0,1,48,8)"></path>
   <path d="M 0 0 L 8 0 L 8 8 L 0 8 Z" fill="transparent" transform="matrix(1,0,0,1,56,8)"></path>
   <path d="M 0 0 L 8 0 L 8 8 L 0 8 Z" fill="transparent" transform="matrix(1,0,0,1,64,8)"></path>
   <path d="M 0 0 L 8 0 L 8 8 L 0 8 Z" fill="#000000" transform="matrix(1,0,0,1,72,8)"></path>
   <path d="M 0 0 L 8 0 L 8 8 L 0 8 Z" fill="#000000" transform="matrix(1,0,0,1,80,8)"></path>
   <path d="M 0 0 L 8 0 L 8 8 L 0 8 Z" fill="transparent" transform="matrix(1,0,0,1,88,8)"></path>
   <path d="M 0 0 L 8 0 L 8 8 L 0 8 Z" fill="#000000" transform="matrix(1,0,0,1,96,8)"></path>
   <path d="M 0 0 L 8 0 L 8 8 L 0 8 Z" fill="#000000" transform="matrix(1,0,0,1,104,8)"></path>
   <path d="M 0 0 L 8 0 L 8 8 L 0 8 Z" fill="transparent" transform="matrix(1,0,0,1,112,8)"></path>
   <path d="M 0 0 L 8 0 L 8 8 L 0 8 Z" fill="transparent" transform="matrix(1,0,0,1,120,8)"></path>
   <path d="M 0 0 L 8 0 L 8 8 L 0 8 Z" fill="#000000" transform="matrix(1,0,0,1,128,8)"></path>
   <path d="M 0 0 L 8 0 L 8 8 L 0 8 Z" fill="transparent" transform="matrix(1,0,0,1,136,8)"></path>
   <path d="M 0 0 L 8 0 L 8 8 L 0 8 Z" fill="#000000" transform="matrix(1,0,0,1,144,8)"></path>
   <path d="M 0 0 L 8 0 L 8 8 L 0 8 Z" fill="transparent" transform="matrix(1,0,0,1,152,8)"></path>
   <path d="M 0 0 L 8 0 L 8 8 L 0 8 Z" fill="transparent" transform="matrix(1,0,0,1,160,8)"></path>
   <path d="M 0 0 L 8 0 L 8 8 L 0 8 Z" fill="transparent" transform="matrix(1,0,0,1,168,8)"></path>
   <path d="M 0 0 L 8 0 L 8 8 L 0 8 Z" fill="transparent" transform="matrix(1,0,0,1,176,8)"></path>
   <path d="M 0 0 L 8 0 L 8 8 L 0 8 Z" fill="transparent" transform="matrix(1,0,0,1,184,8)"></path>
   <path d="M 0 0 L 8 0 L 8 8 L 0 8 Z" fill="#000000" transform="matrix(1,0,0,1,192,8)"></path>
   <path d="M 0 0 L 8 0 L 8 8 L 0 8 Z" fill="#000000" transform="matrix(1,0,0,1,0,16)"></path>
   <path d="M 0 0 L 8 0 L 8 8 L 0 8 Z" fill="transparent" transform="matrix(1,0,0,1,8,16)"></path>
   <path d="M 0 0 L 8 0 L 8 8 L 0 8 Z" fill="#000000" transform="matrix(1,0,0,1,16,16)"></path>
   <path d="M 0 0 L 8 0 L 8 8 L 0 8 Z" fill="#000000" transform="matrix(1,0,0,1,24,16)"></path>
   <path d="M 0 0 L 8 0 L 8 8 L 0 8 Z" fill="#000000" transform="matrix(1,0,0,1,32,16)"></path>
   <path d="M 0 0 L 8 0 L 8 8 L 0 8 Z" fill="transparent" transform="matrix(1,0,0,1,40,16)"></path>
   <path d="M 0 0 L 8 0 L 8 8 L 0 8 Z" fill="#000000" transform="matrix(1,0,0,1,48,16)"></path>
   <path d="M 0 0 L 8 0 L 8 8 L 0 8 Z" fill="transparent" transform="matrix(1,0,0,1,56,16)"></path>
   <path d="M 0 0 L 8 0 L 8 8 L 0 8 Z" fill="transparent" transform="matrix(1,0,0,1,64,16)"></path>
   <path d="M 0 0 L 8 0 L 8 8 L 0 8 Z" fill="transparent" transform="matrix(1,0,0,1,72,16)"></path>
   <path d="M 0 0 L 8 0 L 8 8 L 0 8 Z" fill="#000000" transform="matrix(1,0,0,1,80,16)"></path>
   <path d="M 0 0 L 8 0 L 8 8 L 0 8 Z" fill="#000000" transform="matrix(1,0,0,1,88,16)"></path>
   <path d="M 0 0 L 8 0 L 8 8 L 0 8 Z" fill="#000000" transform="matrix(1,0,0,1,96,16)"></path>
   <path d="M 0 0 L 8 0 L 8 8 L 0 8 Z" fill="#000000" transform="matrix(1,0,0,1,104,16)"></path>
   <path d="M 0 0 L 8 0 L 8 8 L 0 8 Z" fill="#000000" transform="matrix(1,0,0,1,112,16)"></path>
   <path d="M 0 0 L 8 0 L 8 8 L 0 8 Z" fill="transparent" transform="matrix(1,0,0,1,120,16)"></path>
   <path d="M 0 0 L 8 0 L 8 8 L 0 8 Z" fill="transparent" transform="matrix(1,0,0,1,128,16)"></path>
   <path d="M 0 0 L 8 0 L 8 8 L 0 8 Z" fill="transparent" transform="matrix(1,0,0,1,136,16)"></path>
   <path d="M 0 0 L 8 0 L 8 8 L 0 8 Z" fill="#000000" transform="matrix(1,0,0,1,144,16)"></path>
   <path d="M 0 0 L 8 0 L 8 8 L 0 8 Z" fill="transparent" transform="matrix(1,0,0,1,152,16)"></path>
   <path d="M 0 0 L 8 0 L 8 8 L 0 8 Z" fill="#000000" transform="matrix(1,0,0,1,160,16)"></path>
   <path d="M 0 0 L 8 0 L 8 8 L 0 8 Z" fill="#000000" transform="matrix(1,0,0,1,168,16)"></path>
   <path d="M 0 0 L 8 0 L 8 8 L 0 8 Z" fill="#000000" transform="matrix(1,0,0,1,176,16)"></path>
   <path d="M 0 0 L 8 0 L 8 8 L 0 8 Z" fill="transparent" transform="matrix(1,0,0,1,184,16)"></path>
   <path d="M 0 0 L 8 0 L 8 8 L 0 8 Z" fill="#000000" transform="matrix(1,0,0,1,192,16)"></path>
   <path d="M 0 0 L 8 0 L 8 8 L 0 8 Z" fill="#000000" transform="matrix(1,0,0,1,0,24)"></path>
   <path d="M 0 0 L 8 0 L 8 8 L 0 8 Z" fill="transparent" transform="matrix(1,0,0,1,8,24)"></path>
   <path d="M 0 0 L 8 0 L 8 8 L 0 8 Z" fill="#000000" transform="matrix(1,0,0,1,16,24)"></path>
   <path d="M 0 0 L 8 0 L 8 8 L 0 8 Z" fill="#000000" transform="matrix(1,0,0,1,24,24)"></path>
   <path d="M 0 0 L 8 0 L 8 8 L 0 8 Z" fill="#000000" transform="matrix(1,0,0,1,32,24)"></path>
   <path d="M 0 0 L 8 0 L 8 8 L 0 8 Z" fill="transparent" transform="matrix(1,0,0,1,40,24)"></path>
   <path d="M 0 0 L 8 0 L 8 8 L 0 8 Z" fill="#000000" transform="matrix(1,0,0,1,48,24)"></path>
   <path d="M 0 0 L 8 0 L 8 8 L 0 8 Z" fill="transparent" transform="matrix(1,0,0,1,56,24)"></path>
   <path d="M 0 0 L 8 0 L 8 8 L 0 8 Z" fill="transparent" transform="matrix(1,0,0,1,64,24)"></path>
   <path d="M 0 0 L 8 0 L 8 8 L 0 8 Z" fill="transparent" transform="matrix(1,0,0,1,72,24)"></path>
   <path d="M 0 0 L 8 0 L 8 8 L 0 8 Z" fill="transparent" transform="matrix(1,0,0,1,80,24)"></path>
   <path d="M 0 0 L 8 0 L 8 8 L 0 8 Z" fill="#000000" transform="matrix(1,0,0,1,88,24)"></path>
   <path d="M 0 0 L 8 0 L 8 8 L 0 8 Z" fill="transparent" transform="matrix(1,0,0,1,96,24)"></path>
   <path d="M 0 0 L 8 0 L 8 8 L 0 8 Z" fill="#000000" transform="matrix(1,0,0,1,104,24)"></path>
   <path d="M 0 0 L 8 0 L 8 8 L 0 8 Z" fill="#000000" transform="matrix(1,0,0,1,112,24)"></path>
   <path d="M 0 0 L 8 0 L 8 8 L 0 8 Z" fill="transparent" transform="matrix(1,0,0,1,120,24)"></path>
   <path d="M 0 0 L 8 0 L 8 8 L 0 8 Z" fill="#000000" transform="matrix(1,0,0,1,128,24)"></path>
   <path d="M 0 0 L 8 0 L 8 8 L 0 8 Z" fill="transparent" transform="matrix(1,0,0,1,136,24)"></path>
   <path d="M 0 0 L 8 0 L 8 8 L 0 8 Z" fill="#000000" transform="matrix(1,0,0,1,144,24)"></path>
   <path d="M 0 0 L 8 0 L 8 8 L 0 8 Z" fill="transparent" transform="matrix(1,0,0,1,152,24)"></path>
   <path d="M 0 0 L 8 0 L 8 8 L 0 8 Z" fill="#000000" transform="matrix(1,0,0,1,160,24)"></path>
   <path d="M 0 0 L 8 0 L 8 8 L 0 8 Z" fill="#000000" transform="matrix(1,0,0,1,168,24)"></path>
   <path d="M 0 0 L 8 0 L 8 8 L 0 8 Z" fill="#000000" transform="matrix(1,0,0,1,176,24)"></path>
   <path d="M 0 0 L 8 0 L 8 8 L 0 8 Z" fill="transparent" transform="matrix(1,0,0,1,184,24)"></path>
   <path d="M 0 0 L 8 0 L 8 8 L 0 8 Z" fill="#000000" transform="matrix(1,0,0,1,192,24)"></path>
   <path d="M 0 0 L 8 0 L 8 8 L 0 8 Z" fill="#000000" transform="matrix(1,0,0,1,0,32)"></path>
   <path d="M 0 0 L 8 0 L 8 8 L 0 8 Z" fill="transparent" transform="matrix(1,0,0,1,8,32)"></path>
   <path d="M 0 0 L 8 0 L 8 8 L 0 8 Z" fill="#000000" transform="matrix(1,0,0,1,16,32)"></path>
   <path d="M 0 0 L 8 0 L 8 8 L 0 8 Z" fill="#000000" transform="matrix(1,0,0,1,24,32)"></path>
   <path d="M 0 0 L 8 0 L 8 8 L 0 8 Z" fill="#000000" transform="matrix(1,0,0,1,32,32)"></path>
   <path d="M 0 0 L 8 0 L 8 8 L 0 8 Z" fill="transparent" transform="matrix(1,0,0,1,40,32)"></path>
   <path d="M 0 0 L 8 0 L 8 8 L 0 8 Z" fill="#000000" transform="matrix(1,0,0,1,48,32)"></path>
   <path d="M 0 0 L 8 0 L 8 8 L 0 8 Z" fill="transparent" transform="matrix(1,0,0,1,56,32)"></path>
   <path d="M 0 0 L 8 0 L 8 8 L 0 8 Z" fill="transparent" transform="matrix(1,0,0,1,64,32)"></path>
   <path d="M 0 0 L 8 0 L 8 8 L 0 8 Z" fill="#000000" transform="matrix(1,0,0,1,72,32)"></path>
   <path d="M 0 0 L 8 0 L 8 8 L 0 8 Z" fill="transparent" transform="matrix(1,0,0,1,80,32)"></path>
   <path d="M 0 0 L 8 0 L 8 8 L 0 8 Z" fill="transparent" transform="matrix(1,0,0,1,88,32)"></path>
   <path d="M 0 0 L 8 0 L 8 8 L 0 8 Z" fill="transparent" transform="matrix(1,0,0,1,96,32)"></path>
   <path d="M 0 0 L 8 0 L 8 8 L 0 8 Z" fill="#000000" transform="matrix(1,0,0,1,104,32)"></path>
   <path d="M 0 0 L 8 0 L 8 8 L 0 8 Z" fill="#000000" transform="matrix(1,0,0,1,112,32)"></path>
   <path d="M 0 0 L 8 0 L 8 8 L 0 8 Z" fill="transparent" transform="matrix(1,0,0,1,120,32)"></path>
   <path d="M 0 0 L 8 0 L 8 8 L 0 8 Z" fill="#000000" transform="matrix(1,0,0,1,128,32)"></path>
   <path d="M 0 0 L 8 0 L 8 8 L 0 8 Z" fill="transparent" transform="matrix(1,0,0,1,136,32)"></path>
   <path d="M 0 0 L 8 0 L 8 8 L 0 8 Z" fill="#000000" transform="matrix(1,0,0,1,144,32)"></path>
   <path d="M 0 0 L 8 0 L 8 8 L 0 8 Z" fill="transparent" transform="matrix(1,0,0,1,152,32)"></path>
   <path d="M 0 0 L 8 0 L 8 8 L 0 8 Z" fill="#000000" transform="matrix(1,0,0,1,160,32)"></path>
   <path d="M 0 0 L 8 0 L 8 8 L 0 8 Z" fill="#000000" transform="matrix(1,0,0,1,168,32)"></path>
   <path d="M 0 0 L 8 0 L 8 8 L 0 8 Z" fill="#000000" transform="matrix(1,0,0,1,176,32)"></path>
   <path d="M 0 0 L 8 0 L 8 8 L 0 8 Z" fill="transparent" transform="matrix(1,0,0,1,184,32)"></path>
   <path d="M 0 0 L 8 0 L 8 8 L 0 8 Z" fill="#000000" transform="matrix(1,0,0,1,192,32)"></path>
   <path d="M 0 0 L 8 0 L 8 8 L 0 8 Z" fill="#000000" transform="matrix(1,0,0,1,0,40)"></path>
   <path d="M 0 0 L 8 0 L 8 8 L 0 8 Z" fill="transparent" transform="matrix(1,0,0,1,8,40)"></path>
   <path d="M 0 0 L 8 0 L 8 8 L 0 8 Z" fill="transparent" transform="matrix(1,0,0,1,16,40)"></path>
   <path d="M 0 0 L 8 0 L 8 8 L 0 8 Z" fill="transparent" transform="matrix(1,0,0,1,24,40)"></path>
   <path d="M 0 0 L 8 0 L 8 8 L 0 8 Z" fill="transparent" transform="matrix(1,0,0,1,32,40)"></path>
   <path d="M 0 0 L 8 0 L 8 8 L 0 8 Z" fill="transparent" transform="matrix(1,0,0,1,40,40)"></path>
   <path d="M 0 0 L 8 0 L 8 8 L 0 8 Z" fill="#000000" transform="matrix(1,0,0,1,48,40)"></path>
   <path d="M 0 0 L 8 0 L 8 8 L 0 8 Z" fill="transparent" transform="matrix(1,0,0,1,56,40)"></path>
   <path d="M 0 0 L 8 0 L 8 8 L 0 8 Z" fill="transparent" transform="matrix(1,0,0,1,64,40)"></path>
   <path d="M 0 0 L 8 0 L 8 8 L 0 8 Z" fill="transparent" transform="matrix(1,0,0,1,72,40)"></path>
   <path d="M 0 0 L 8 0 L 8 8 L 0 8 Z" fill="#000000" transform="matrix(1,0,0,1,80,40)"></path>
   <path d="M 0 0 L 8 0 L 8 8 L 0 8 Z" fill="#000000" transform="matrix(1,0,0,1,88,40)"></path>
   <path d="M 0 0 L 8 0 L 8 8 L 0 8 Z" fill="transparent" transform="matrix(1,0,0,1,96,40)"></path>
   <path d="M 0 0 L 8 0 L 8 8 L 0 8 Z" fill="#000000" transform="matrix(1,0,0,1,104,40)"></path>
   <path d="M 0 0 L 8 0 L 8 8 L 0 8 Z" fill="#000000" transform="matrix(1,0,0,1,112,40)"></path>
   <path d="M 0 0 L 8 0 L 8 8 L 0 8 Z" fill="transparent" transform="matrix(1,0,0,1,120,40)"></path>
   <path d="M 0 0 L 8 0 L 8 8 L 0 8 Z" fill="transparent" transform="matrix(1,0,0,1,128,40)"></path>
   <path d="M 0 0 L 8 0 L 8 8 L 0 8 Z" fill="transparent" transform="matrix(1,0,0,1,136,40)"></path>
   <path d="M 0 0 L 8 0 L 8 8 L 0 8 Z" fill="#000000" transform="matrix(1,0,0,1,144,40)"></path>
   <path d="M 0 0 L 8 0 L 8 8 L 0 8 Z" fill="transparent" transform="matrix(1,0,0,1,152,40)"></path>
   <path d="M 0 0 L 8 0 L 8 8 L 0 8 Z" fill="transparent" transform="matrix(1,0,0,1,160,40)"></path>
   <path d="M 0 0 L 8 0 L 8 8 L 0 8 Z" fill="transparent" transform="matrix(1,0,0,1,168,40)"></path>
   <path d="M 0 0 L 8 0 L 8 8 L 0 8 Z" fill="transparent" transform="matrix(1,0,0,1,176,40)"></path>
   <path d="M 0 0 L 8 0 L 8 8 L 0 8 Z" fill="transparent" transform="matrix(1,0,0,1,184,40)"></path>
   <path d="M 0 0 L 8 0 L 8 8 L 0 8 Z" fill="#000000" transform="matrix(1,0,0,1,192,40)"></path>
   <path d="M 0 0 L 8 0 L 8 8 L 0 8 Z" fill="#000000" transform="matrix(1,0,0,1,0,48)"></path>
   <path d="M 0 0 L 8 0 L 8 8 L 0 8 Z" fill="#000000" transform="matrix(1,0,0,1,8,48)"></path>
   <path d="M 0 0 L 8 0 L 8 8 L 0 8 Z" fill="#000000" transform="matrix(1,0,0,1,16,48)"></path>
   <path d="M 0 0 L 8 0 L 8 8 L 0 8 Z" fill="#000000" transform="matrix(1,0,0,1,24,48)"></path>
   <path d="M 0 0 L 8 0 L 8 8 L 0 8 Z" fill="#000000" transform="matrix(1,0,0,1,32,48)"></path>
   <path d="M 0 0 L 8 0 L 8 8 L 0 8 Z" fill="#000000" transform="matrix(1,0,0,1,40,48)"></path>
   <path d="M 0 0 L 8 0 L 8 8 L 0 8 Z" fill="#000000" transform="matrix(1,0,0,1,48,48)"></path>
   <path d="M 0 0 L 8 0 L 8 8 L 0 8 Z" fill="transparent" transform="matrix(1,0,0,1,56,48)"></path>
   <path d="M 0 0 L 8 0 L 8 8 L 0 8 Z" fill="#000000" transform="matrix(1,0,0,1,64,48)"></path>
   <path d="M 0 0 L 8 0 L 8 8 L 0 8 Z" fill="transparent" transform="matrix(1,0,0,1,72,48)"></path>
   <path d="M 0 0 L 8 0 L 8 8 L 0 8 Z" fill="#000000" transform="matrix(1,0,0,1,80,48)"></path>
   <path d="M 0 0 L 8 0 L 8 8 L 0 8 Z" fill="transparent" transform="matrix(1,0,0,1,88,48)"></path>
   <path d="M 0 0 L 8 0 L 8 8 L 0 8 Z" fill="#000000" transform="matrix(1,0,0,1,96,48)"></path>
   <path d="M 0 0 L 8 0 L 8 8 L 0 8 Z" fill="transparent" transform="matrix(1,0,0,1,104,48)"></path>
   <path d="M 0 0 L 8 0 L 8 8 L 0 8 Z" fill="#000000" transform="matrix(1,0,0,1,112,48)"></path>
   <path d="M 0 0 L 8 0 L 8 8 L 0 8 Z" fill="transparent" transform="matrix(1,0,0,1,120,48)"></path>
   <path d="M 0 0 L 8 0 L 8 8 L 0 8 Z" fill="#000000" transform="matrix(1,0,0,1,128,48)"></path>
   <path d="M 0 0 L 8 0 L 8 8 L 0 8 Z" fill="transparent" transform="matrix(1,0,0,1,136,48)"></path>
   <path d="M 0 0 L 8 0 L 8 8 L 0 8 Z" fill="#000000" transform="matrix(1,0,0,1,144,48)"></path>
   <path d="M 0 0 L 8 0 L 8 8 L 0 8 Z" fill="#000000" transform="matrix(1,0,0,1,152,48)"></path>
   <path d="M 0 0 L 8 0 L 8 8 L 0 8 Z" fill="#000000" transform="matrix(1,0,0,1,160,48)"></path>
   <path d="M 0 0 L 8 0 L 8 8 L 0 8 Z" fill="#000000" transform="matrix(1,0,0,1,168,48)"></path>
   <path d="M 0 0 L 8 0 L 8 8 L 0 8 Z" fill="#000000" transform="matrix(1,0,0,1,176,48)"></path>
   <path d="M 0 0 L 8 0 L 8 8 L 0 8 Z" fill="#000000" transform="matrix(1,0,0,1,184,48)"></path>
   <path d="M 0 0 L 8 0 L 8 8 L 0 8 Z" fill="#000000" transform="matrix(1,0,0,1,192,48)"></path>
   <path d="M 0 0 L 8 0 L 8 8 L 0 8 Z" fill="transparent" transform="matrix(1,0,0,1,0,56)"></path>
   <path d="M 0 0 L 8 0 L 8 8 L 0 8 Z" fill="transparent" transform="matrix(1,0,0,1,8,56)"></path>
   <path d="M 0 0 L 8 0 L 8 8 L 0 8 Z" fill="transparent" transform="matrix(1,0,0,1,16,56)"></path>
   <path d="M 0 0 L 8 0 L 8 8 L 0 8 Z" fill="transparent" transform="matrix(1,0,0,1,24,56)"></path>
   <path d="M 0 0 L 8 0 L 8 8 L 0 8 Z" fill="transparent" transform="matrix(1,0,0,1,32,56)"></path>
   <path d="M 0 0 L 8 0 L 8 8 L 0 8 Z" fill="transparent" transform="matrix(1,0,0,1,40,56)"></path>
   <path d="M 0 0 L 8 0 L 8 8 L 0 8 Z" fill="transparent" transform="matrix(1,0,0,1,48,56)"></path>
   <path d="M 0 0 L 8 0 L 8 8 L 0 8 Z" fill="transparent" transform="matrix(1,0,0,1,56,56)"></path>
   <path d="M 0 0 L 8 0 L 8 8 L 0 8 Z" fill="#000000" transform="matrix(1,0,0,1,64,56)"></path>
   <path d="M 0 0 L 8 0 L 8 8 L 0 8 Z" fill="transparent" transform="matrix(1,0,0,1,72,56)"></path>
   <path d="M 0 0 L 8 0 L 8 8 L 0 8 Z" fill="#000000" transform="matrix(1,0,0,1,80,56)"></path>
   <path d="M 0 0 L 8 0 L 8 8 L 0 8 Z" fill="transparent" transform="matrix(1,0,0,1,88,56)"></path>
   <path d="M 0 0 L 8 0 L 8 8 L 0 8 Z" fill="#000000" transform="matrix(1,0,0,1,96,56)"></path>
   <path d="M 0 0 L 8 0 L 8 8 L 0 8 Z" fill="#000000" transform="matrix(1,0,0,1,104,56)"></path>
   <path d="M 0 0 L 8 0 L 8 8 L 0 8 Z" fill="#000000" transform="matrix(1,0,0,1,112,56)"></path>
   <path d="M 0 0 L 8 0 L 8 8 L 0 8 Z" fill="transparent" transform="matrix(1,0,0,1,120,56)"></path>
   <path d="M 0 0 L 8 0 L 8 8 L 0 8 Z" fill="transparent" transform="matrix(1,0,0,1,128,56)"></path>
   <path d="M 0 0 L 8 0 L 8 8 L 0 8 Z" fill="transparent" transform="matrix(1,0,0,1,136,56)"></path>
   <path d="M 0 0 L 8 0 L 8 8 L 0 8 Z" fill="transparent" transform="matrix(1,0,0,1,144,56)"></path>
   <path d="M 0 0 L 8 0 L 8 8 L 0 8 Z" fill="transparent" transform="matrix(1,0,0,1,152,56)"></path>
   <path d="M 0 0 L 8 0 L 8 8 L 0 8 Z" fill="transparent" transform="matrix(1,0,0,1,160,56)"></path>
   <path d="M 0 0 L 8 0 L 8 8 L 0 8 Z" fill="transparent" transform="matrix(1,0,0,1,168,56)"></path>
   <path d="M 0 0 L 8 0 L 8 8 L 0 8 Z" fill="transparent" transform="matrix(1,0,0,1,176,56)"></path>
   <path d="M 0 0 L 8 0 L 8 8 L 0 8 Z" fill="transparent" transform="matrix(1,0,0,1,184,56)"></path>
   <path d="M 0 0 L 8 0 L 8 8 L 0 8 Z" fill="transparent" transform="matrix(1,0,0,1,192,56)"></path>
   <path d="M 0 0 L 8 0 L 8 8 L 0 8 Z" fill="#000000" transform="matrix(1,0,0,1,0,64)"></path>
   <path d="M 0 0 L 8 0 L 8 8 L 0 8 Z" fill="#000000" transform="matrix(1,0,0,1,8,64)"></path>
   <path d="M 0 0 L 8 0 L 8 8 L 0 8 Z" fill="transparent" transform="matrix(1,0,0,1,16,64)"></path>
   <path d="M 0 0 L 8 0 L 8 8 L 0 8 Z" fill="#000000" transform="matrix(1,0,0,1,24,64)"></path>
   <path d="M 0 0 L 8 0 L 8 8 L 0 8 Z" fill="#000000" transform="matrix(1,0,0,1,32,64)"></path>
   <path d="M 0 0 L 8 0 L 8 8 L 0 8 Z" fill="transparent" transform="matrix(1,0,0,1,40,64)"></path>
   <path d="M 0 0 L 8 0 L 8 8 L 0 8 Z" fill="#000000" transform="matrix(1,0,0,1,48,64)"></path>
   <path d="M 0 0 L 8 0 L 8 8 L 0 8 Z" fill="transparent" transform="matrix(1,0,0,1,56,64)"></path>
   <path d="M 0 0 L 8 0 L 8 8 L 0 8 Z" fill="transparent" transform="matrix(1,0,0,1,64,64)"></path>
   <path d="M 0 0 L 8 0 L 8 8 L 0 8 Z" fill="#000000" transform="matrix(1,0,0,1,72,64)"></path>
   <path d="M 0 0 L 8 0 L 8 8 L 0 8 Z" fill="#000000" transform="matrix(1,0,0,1,80,64)"></path>
   <path d="M 0 0 L 8 0 L 8 8 L 0 8 Z" fill="transparent" transform="matrix(1,0,0,1,88,64)"></path>
   <path d="M 0 0 L 8 0 L 8 8 L 0 8 Z" fill="#000000" transform="matrix(1,0,0,1,96,64)"></path>
   <path d="M 0 0 L 8 0 L 8 8 L 0 8 Z" fill="transparent" transform="matrix(1,0,0,1,104,64)"></path>
   <path d="M 0 0 L 8 0 L 8 8 L 0 8 Z" fill="#000000" transform="matrix(1,0,0,1,112,64)"></path>
   <path d="M 0 0 L 8 0 L 8 8 L 0 8 Z" fill="#000000" transform="matrix(1,0,0,1,120,64)"></path>
   <path d="M 0 0 L 8 0 L 8 8 L 0 8 Z" fill="#000000" transform="matrix(1,0,0,1,128,64)"></path>
   <path d="M 0 0 L 8 0 L 8 8 L 0 8 Z" fill="transparent" transform="matrix(1,0,0,1,136,64)"></path>
   <path d="M 0 0 L 8 0 L 8 8 L 0 8 Z" fill="#000000" transform="matrix(1,0,0,1,144,64)"></path>
   <path d="M 0 0 L 8 0 L 8 8 L 0 8 Z" fill="transparent" transform="matrix(1,0,0,1,152,64)"></path>
   <path d="M 0 0 L 8 0 L 8 8 L 0 8 Z" fill="transparent" transform="matrix(1,0,0,1,160,64)"></path>
   <path d="M 0 0 L 8 0 L 8 8 L 0 8 Z" fill="transparent" transform="matrix(1,0,0,1,168,64)"></path>
   <path d="M 0 0 L 8 0 L 8 8 L 0 8 Z" fill="transparent" transform="matrix(1,0,0,1,176,64)"></path>
   <path d="M 0 0 L 8 0 L 8 8 L 0 8 Z" fill="transparent" transform="matrix(1,0,0,1,184,64)"></path>
   <path d="M 0 0 L 8 0 L 8 8 L 0 8 Z" fill="#000000" transform="matrix(1,0,0,1,192,64)"></path>
   <path d="M 0 0 L 8 0 L 8 8 L 0 8 Z" fill="transparent" transform="matrix(1,0,0,1,0,72)"></path>
   <path d="M 0 0 L 8 0 L 8 8 L 0 8 Z" fill="transparent" transform="matrix(1,0,0,1,8,72)"></path>
   <path d="M 0 0 L 8 0 L 8 8 L 0 8 Z" fill="#000000" transform="matrix(1,0,0,1,16,72)"></path>
   <path d="M 0 0 L 8 0 L 8 8 L 0 8 Z" fill="#000000" transform="matrix(1,0,0,1,24,72)"></path>
   <path d="M 0 0 L 8 0 L 8 8 L 0 8 Z" fill="#000000" transform="matrix(1,0,0,1,32,72)"></path>
   <path d="M 0 0 L 8 0 L 8 8 L 0 8 Z" fill="transparent" transform="matrix(1,0,0,1,40,72)"></path>
   <path d="M 0 0 L 8 0 L 8 8 L 0 8 Z" fill="transparent" transform="matrix(1,0,0,1,48,72)"></path>
   <path d="M 0 0 L 8 0 L 8 8 L 0 8 Z" fill="transparent" transform="matrix(1,0,0,1,56,72)"></path>
   <path d="M 0 0 L 8 0 L 8 8 L 0 8 Z" fill="transparent" transform="matrix(1,0,0,1,64,72)"></path>
   <path d="M 0 0 L 8 0 L 8 8 L 0 8 Z" fill="#000000" transform="matrix(1,0,0,1,72,72)"></path>
   <path d="M 0 0 L 8 0 L 8 8 L 0 8 Z" fill="transparent" transform="matrix(1,0,0,1,80,72)"></path>
   <path d="M 0 0 L 8 0 L 8 8 L 0 8 Z" fill="#000000" transform="matrix(1,0,0,1,88,72)"></path>
   <path d="M 0 0 L 8 0 L 8 8 L 0 8 Z" fill="transparent" transform="matrix(1,0,0,1,96,72)"></path>
   <path d="M 0 0 L 8 0 L 8 8 L 0 8 Z" fill="#000000" transform="matrix(1,0,0,1,104,72)"></path>
   <path d="M 0 0 L 8 0 L 8 8 L 0 8 Z" fill="#000000" transform="matrix(1,0,0,1,112,72)"></path>
   <path d="M 0 0 L 8 0 L 8 8 L 0 8 Z" fill="#000000" transform="matrix(1,0,0,1,120,72)"></path>
   <path d="M 0 0 L 8 0 L 8 8 L 0 8 Z" fill="transparent" transform="matrix(1,0,0,1,128,72)"></path>
   <path d="M 0 0 L 8 0 L 8 8 L 0 8 Z" fill="transparent" transform="matrix(1,0,0,1,136,72)"></path>
   <path d="M 0 0 L 8 0 L 8 8 L 0 8 Z" fill="transparent" transform="matrix(1,0,0,1,144,72)"></path>
   <path d="M 0 0 L 8 0 L 8 8 L 0 8 Z" fill="#000000" transform="matrix(1,0,0,1,152,72)"></path>
   <path d="M 0 0 L 8 0 L 8 8 L 0 8 Z" fill="#000000" transform="matrix(1,0,0,1,160,72)"></path>
   <path d="M 0 0 L 8 0 L 8 8 L 0 8 Z" fill="#000000" transform="matrix(1,0,0,1,168,72)"></path>
   <path d="M 0 0 L 8 0 L 8 8 L 0 8 Z" fill="#000000" transform="matrix(1,0,0,1,176,72)"></path>
   <path d="M 0 0 L 8 0 L 8 8 L 0 8 Z" fill="#000000" transform="matrix(1,0,0,1,184,72)"></path>
   <path d="M 0 0 L 8 0 L 8 8 L 0 8 Z" fill="transparent" transform="matrix(1,0,0,1,192,72)"></path>
   <path d="M 0 0 L 8 0 L 8 8 L 0 8 Z" fill="#000000" transform="matrix(1,0,0,1,0,80)"></path>
   <path d="M 0 0 L 8 0 L 8 8 L 0 8 Z" fill="transparent" transform="matrix(1,0,0,1,8,80)"></path>
   <path d="M 0 0 L 8 0 L 8 8 L 0 8 Z" fill="#000000" transform="matrix(1,0,0,1,16,80)"></path>
   <path d="M 0 0 L 8 0 L 8 8 L 0 8 Z" fill="#000000" transform="matrix(1,0,0,1,24,80)"></path>
   <path d="M 0 0 L 8 0 L 8 8 L 0 8 Z" fill="transparent" transform="matrix(1,0,0,1,32,80)"></path>
   <path d="M 0 0 L 8 0 L 8 8 L 0 8 Z" fill="transparent" transform="matrix(1,0,0,1,40,80)"></path>
   <path d="M 0 0 L 8 0 L 8 8 L 0 8 Z" fill="#000000" transform="matrix(1,0,0,1,48,80)"></path>
   <path d="M 0 0 L 8 0 L 8 8 L 0 8 Z" fill="transparent" transform="matrix(1,0,0,1,56,80)"></path>
   <path d="M 0 0 L 8 0 L 8 8 L 0 8 Z" fill="#000000" transform="matrix(1,0,0,1,64,80)"></path>
   <path d="M 0 0 L 8 0 L 8 8 L 0 8 Z" fill="transparent" transform="matrix(1,0,0,1,72,80)"></path>
   <path d="M 0 0 L 8 0 L 8 8 L 0 8 Z" fill="#000000" transform="matrix(1,0,0,1,80,80)"></path>
   <path d="M 0 0 L 8 0 L 8 8 L 0 8 Z" fill="#000000" transform="matrix(1,0,0,1,88,80)"></path>
   <path d="M 0 0 L 8 0 L 8 8 L 0 8 Z" fill="#000000" transform="matrix(1,0,0,1,96,80)"></path>
   <path d="M 0 0 L 8 0 L 8 8 L 0 8 Z" fill="transparent" transform="matrix(1,0,0,1,104,80)"></path>
   <path d="M 0 0 L 8 0 L 8 8 L 0 8 Z" fill="transparent" transform="matrix(1,0,0,1,112,80)"></path>
   <path d="M 0 0 L 8 0 L 8 8 L 0 8 Z" fill="#000000" transform="matrix(1,0,0,1,120,80)"></path>
   <path d="M 0 0 L 8 0 L 8 8 L 0 8 Z" fill="transparent" transform="matrix(1,0,0,1,128,80)"></path>
   <path d="M 0 0 L 8 0 L 8 8 L 0 8 Z" fill="#000000" transform="matrix(1,0,0,1,136,80)"></path>
   <path d="M 0 0 L 8 0 L 8 8 L 0 8 Z" fill="#000000" transform="matrix(1,0,0,1,144,80)"></path>
   <path d="M 0 0 L 8 0 L 8 8 L 0 8 Z" fill="transparent" transform="matrix(1,0,0,1,152,80)"></path>
   <path d="M 0 0 L 8 0 L 8 8 L 0 8 Z" fill="#000000" transform="matrix(1,0,0,1,160,80)"></path>
   <path d="M 0 0 L 8 0 L 8 8 L 0 8 Z" fill="#000000" transform="matrix(1,0,0,1,168,80)"></path>
   <path d="M 0 0 L 8 0 L 8 8 L 0 8 Z" fill="transparent" transform="matrix(1,0,0,1,176,80)"></path>
   <path d="M 0 0 L 8 0 L 8 8 L 0 8 Z" fill="transparent" transform="matrix(1,0,0,1,184,80)"></path>
   <path d="M 0 0 L 8 0 L 8 8 L 0 8 Z" fill="#000000" transform="matrix(1,0,0,1,192,80)"></path>
   <path d="M 0 0 L 8 0 L 8 8 L 0 8 Z" fill="transparent" transform="matrix(1,0,0,1,0,88)"></path>
   <path d="M 0 0 L 8 0 L 8 8 L 0 8 Z" fill="transparent" transform="matrix(1,0,0,1,8,88)"></path>
   <path d="M 0 0 L 8 0 L 8 8 L 0 8 Z" fill="#000000" transform="matrix(1,0,0,1,16,88)"></path>
   <path d="M 0 0 L 8 0 L 8 8 L 0 8 Z" fill="#000000" transform="matrix(1,0,0,1,24,88)"></path>
   <path d="M 0 0 L 8 0 L 8 8 L 0 8 Z" fill="transparent" transform="matrix(1,0,0,1,32,88)"></path>
   <path d="M 0 0 L 8 0 L 8 8 L 0 8 Z" fill="transparent" transform="matrix(1,0,0,1,40,88)"></path>
   <path d="M 0 0 L 8 0 L 8 8 L 0 8 Z" fill="transparent" transform="matrix(1,0,0,1,48,88)"></path>
   <path d="M 0 0 L 8 0 L 8 8 L 0 8 Z" fill="#000000" transform="matrix(1,0,0,1,56,88)"></path>
   <path d="M 0 0 L 8 0 L 8 8 L 0 8 Z" fill="transparent" transform="matrix(1,0,0,1,64,88)"></path>
   <path d="M 0 0 L 8 0 L 8 8 L 0 8 Z" fill="#000000" transform="matrix(1,0,0,1,72,88)"></path>
   <path d="M 0 0 L 8 0 L 8 8 L 0 8 Z" fill="#000000" transform="matrix(1,0,0,1,80,88)"></path>
   <path d="M 0 0 L 8 0 L 8 8 L 0 8 Z" fill="transparent" transform="matrix(1,0,0,1,88,88)"></path>
   <path d="M 0 0 L 8 0 L 8 8 L 0 8 Z" fill="transparent" transform="matrix(1,0,0,1,96,88)"></path>
   <path d="M 0 0 L 8 0 L 8 8 L 0 8 Z" fill="transparent" transform="matrix(1,0,0,1,104,88)"></path>
   <path d="M 0 0 L 8 0 L 8 8 L 0 8 Z" fill="transparent" transform="matrix(1,0,0,1,112,88)"></path>
   <path d="M 0 0 L 8 0 L 8 8 L 0 8 Z" fill="transparent" transform="matrix(1,0,0,1,120,88)"></path>
   <path d="M 0 0 L 8 0 L 8 8 L 0 8 Z" fill="#000000" transform="matrix(1,0,0,1,128,88)"></path>
   <path d="M 0 0 L 8 0 L 8 8 L 0 8 Z" fill="transparent" transform="matrix(1,0,0,1,136,88)"></path>
   <path d="M 0 0 L 8 0 L 8 8 L 0 8 Z" fill="#000000" transform="matrix(1,0,0,1,144,88)"></path>
   <path d="M 0 0 L 8 0 L 8 8 L 0 8 Z" fill="transparent" transform="matrix(1,0,0,1,152,88)"></path>
   <path d="M 0 0 L 8 0 L 8 8 L 0 8 Z" fill="#000000" transform="matrix(1,0,0,1,160,88)"></path>
   <path d="M 0 0 L 8 0 L 8 8 L 0 8 Z" fill="#000000" transform="matrix(1,0,0,1,168,88)"></path>
   <path d="M 0 0 L 8 0 L 8 8 L 0 8 Z" fill="#000000" transform="matrix(1,0,0,1,176,88)"></path>
   <path d="M 0 0 L 8 0 L 8 8 L 0 8 Z" fill="#000000" transform="matrix(1,0,0,1,184,88)"></path>
   <path d="M 0 0 L 8 0 L 8 8 L 0 8 Z" fill="#000000" transform="matrix(1,0,0,1,192,88)"></path>
   <path d="M 0 0 L 8 0 L 8 8 L 0 8 Z" fill="#000000" transform="matrix(1,0,0,1,0,96)"></path>
   <path d="M 0 0 L 8 0 L 8 8 L 0 8 Z" fill="#000000" transform="matrix(1,0,0,1,8,96)"></path>
   <path d="M 0 0 L 8 0 L 8 8 L 0 8 Z" fill="#000000" transform="matrix(1,0,0,1,16,96)"></path>
   <path d="M 0 0 L 8 0 L 8 8 L 0 8 Z" fill="#000000" transform="matrix(1,0,0,1,24,96)"></path>
   <path d="M 0 0 L 8 0 L 8 8 L 0 8 Z" fill="transparent" transform="matrix(1,0,0,1,32,96)"></path>
   <path d="M 0 0 L 8 0 L 8 8 L 0 8 Z" fill="transparent" transform="matrix(1,0,0,1,40,96)"></path>
   <path d="M 0 0 L 8 0 L 8 8 L 0 8 Z" fill="#000000" transform="matrix(1,0,0,1,48,96)"></path>
   <path d="M 0 0 L 8 0 L 8 8 L 0 8 Z" fill="transparent" transform="matrix(1,0,0,1,56,96)"></path>
   <path d="M 0 0 L 8 0 L 8 8 L 0 8 Z" fill="transparent" transform="matrix(1,0,0,1,64,96)"></path>
   <path d="M 0 0 L 8 0 L 8 8 L 0 8 Z" fill="#000000" transform="matrix(1,0,0,1,72,96)"></path>
   <path d="M 0 0 L 8 0 L 8 8 L 0 8 Z" fill="transparent" transform="matrix(1,0,0,1,80,96)"></path>
   <path d="M 0 0 L 8 0 L 8 8 L 0 8 Z" fill="#000000" transform="matrix(1,0,0,1,88,96)"></path>
   <path d="M 0 0 L 8 0 L 8 8 L 0 8 Z" fill="transparent" transform="matrix(1,0,0,1,96,96)"></path>
   <path d="M 0 0 L 8 0 L 8 8 L 0 8 Z" fill="transparent" transform="matrix(1,0,0,1,104,96)"></path>
   <path d="M 0 0 L 8 0 L 8 8 L 0 8 Z" fill="transparent" transform="matrix(1,0,0,1,112,96)"></path>
   <path d="M 0 0 L 8 0 L 8 8 L 0 8 Z" fill="#000000" transform="matrix(1,0,0,1,120,96)"></path>
   <path d="M 0 0 L 8 0 L 8 8 L 0 8 Z" fill="transparent" transform="matrix(1,0,0,1,128,96)"></path>
   <path d="M 0 0 L 8 0 L 8 8 L 0 8 Z" fill="transparent" transform="matrix(1,0,0,1,136,96)"></path>
   <path d="M 0 0 L 8 0 L 8 8 L 0 8 Z" fill="#000000" transform="matrix(1,0,0,1,144,96)"></path>
   <path d="M 0 0 L 8 0 L 8 8 L 0 8 Z" fill="#000000" transform="matrix(1,0,0,1,152,96)"></path>
   <path d="M 0 0 L 8 0 L 8 8 L 0 8 Z" fill="transparent" transform="matrix(1,0,0,1,160,96)"></path>
   <path d="M 0 0 L 8 0 L 8 8 L 0 8 Z" fill="transparent" transform="matrix(1,0,0,1,168,96)"></path>
   <path d="M 0 0 L 8 0 L 8 8 L 0 8 Z" fill="transparent" transform="matrix(1,0,0,1,176,96)"></path>
   <path d="M 0 0 L 8 0 L 8 8 L 0 8 Z" fill="transparent" transform="matrix(1,0,0,1,184,96)"></path>
   <path d="M 0 0 L 8 0 L 8 8 L 0 8 Z" fill="#000000" transform="matrix(1,0,0,1,192,96)"></path>
   <path d="M 0 0 L 8 0 L 8 8 L 0 8 Z" fill="#000000" transform="matrix(1,0,0,1,0,104)"></path>
   <path d="M 0 0 L 8 0 L 8 8 L 0 8 Z" fill="#000000" transform="matrix(1,0,0,1,8,104)"></path>
   <path d="M 0 0 L 8 0 L 8 8 L 0 8 Z" fill="transparent" transform="matrix(1,0,0,1,16,104)"></path>
   <path d="M 0 0 L 8 0 L 8 8 L 0 8 Z" fill="transparent" transform="matrix(1,0,0,1,24,104)"></path>
   <path d="M 0 0 L 8 0 L 8 8 L 0 8 Z" fill="transparent" transform="matrix(1,0,0,1,32,104)"></path>
   <path d="M 0 0 L 8 0 L 8 8 L 0 8 Z" fill="#000000" transform="matrix(1,0,0,1,40,104)"></path>
   <path d="M 0 0 L 8 0 L 8 8 L 0 8 Z" fill="transparent" transform="matrix(1,0,0,1,48,104)"></path>
   <path d="M 0 0 L 8 0 L 8 8 L 0 8 Z" fill="transparent" transform="matrix(1,0,0,1,56,104)"></path>
   <path d="M 0 0 L 8 0 L 8 8 L 0 8 Z" fill="#000000" transform="matrix(1,0,0,1,64,104)"></path>
   <path d="M 0 0 L 8 0 L 8 8 L 0 8 Z" fill="transparent" transform="matrix(1,0,0,1,72,104)"></path>
   <path d="M 0 0 L 8 0 L 8 8 L 0 8 Z" fill="transparent" transform="matrix(1,0,0,1,80,104)"></path>
   <path d="M 0 0 L 8 0 L 8 8 L 0 8 Z" fill="#000000" transform="matrix(1,0,0,1,88,104)"></path>
   <path d="M 0 0 L 8 0 L 8 8 L 0 8 Z" fill="transparent" transform="matrix(1,0,0,1,96,104)"></path>
   <path d="M 0 0 L 8 0 L 8 8 L 0 8 Z" fill="transparent" transform="matrix(1,0,0,1,104,104)"></path>
   <path d="M 0 0 L 8 0 L 8 8 L 0 8 Z" fill="#000000" transform="matrix(1,0,0,1,112,104)"></path>
   <path d="M 0 0 L 8 0 L 8 8 L 0 8 Z" fill="#000000" transform="matrix(1,0,0,1,120,104)"></path>
   <path d="M 0 0 L 8 0 L 8 8 L 0 8 Z" fill="#000000" transform="matrix(1,0,0,1,128,104)"></path>
   <path d="M 0 0 L 8 0 L 8 8 L 0 8 Z" fill="#000000" transform="matrix(1,0,0,1,136,104)"></path>
   <path d="M 0 0 L 8 0 L 8 8 L 0 8 Z" fill="transparent" transform="matrix(1,0,0,1,144,104)"></path>
   <path d="M 0 0 L 8 0 L 8 8 L 0 8 Z" fill="transparent" transform="matrix(1,0,0,1,152,104)"></path>
   <path d="M 0 0 L 8 0 L 8 8 L 0 8 Z" fill="#000000" transform="matrix(1,0,0,1,160,104)"></path>
   <path d="M 0 0 L 8 0 L 8 8 L 0 8 Z" fill="transparent" transform="matrix(1,0,0,1,168,104)"></path>
   <path d="M 0 0 L 8 0 L 8 8 L 0 8 Z" fill="transparent" transform="matrix(1,0,0,1,176,104)"></path>
   <path d="M 0 0 L 8 0 L 8 8 L 0 8 Z" fill="#000000" transform="matrix(1,0,0,1,184,104)"></path>
   <path d="M 0 0 L 8 0 L 8 8 L 0 8 Z" fill="transparent" transform="matrix(1,0,0,1,192,104)"></path>
   <path d="M 0 0 L 8 0 L 8 8 L 0 8 Z" fill="#000000" transform="matrix(1,0,0,1,0,112)"></path>
   <path d="M 0 0 L 8 0 L 8 8 L 0 8 Z" fill="#000000" transform="matrix(1,0,0,1,8,112)"></path>
   <path d="M 0 0 L 8 0 L 8 8 L 0 8 Z" fill="transparent" transform="matrix(1,0,0,1,16,112)"></path>
   <path d="M 0 0 L 8 0 L 8 8 L 0 8 Z" fill="transparent" transform="matrix(1,0,0,1,24,112)"></path>
   <path d="M 0 0 L 8 0 L 8 8 L 0 8 Z" fill="#000000" transform="matrix(1,0,0,1,32,112)"></path>
   <path d="M 0 0 L 8 0 L 8 8 L 0 8 Z" fill="transparent" transform="matrix(1,0,0,1,40,112)"></path>
   <path d="M 0 0 L 8 0 L 8 8 L 0 8 Z" fill="#000000" transform="matrix(1,0,0,1,48,112)"></path>
   <path d="M 0 0 L 8 0 L 8 8 L 0 8 Z" fill="transparent" transform="matrix(1,0,0,1,56,112)"></path>
   <path d="M 0 0 L 8 0 L 8 8 L 0 8 Z" fill="transparent" transform="matrix(1,0,0,1,64,112)"></path>
   <path d="M 0 0 L 8 0 L 8 8 L 0 8 Z" fill="transparent" transform="matrix(1,0,0,1,72,112)"></path>
   <path d="M 0 0 L 8 0 L 8 8 L 0 8 Z" fill="#000000" transform="matrix(1,0,0,1,80,112)"></path>
   <path d="M 0 0 L 8 0 L 8 8 L 0 8 Z" fill="transparent" transform="matrix(1,0,0,1,88,112)"></path>
   <path d="M 0 0 L 8 0 L 8 8 L 0 8 Z" fill="transparent" transform="matrix(1,0,0,1,96,112)"></path>
   <path d="M 0 0 L 8 0 L 8 8 L 0 8 Z" fill="#000000" transform="matrix(1,0,0,1,104,112)"></path>
   <path d="M 0 0 L 8 0 L 8 8 L 0 8 Z" fill="transparent" transform="matrix(1,0,0,1,112,112)"></path>
   <path d="M 0 0 L 8 0 L 8 8 L 0 8 Z" fill="#000000" transform="matrix(1,0,0,1,120,112)"></path>
   <path d="M 0 0 L 8 0 L 8 8 L 0 8 Z" fill="#000000" transform="matrix(1,0,0,1,128,112)"></path>
   <path d="M 0 0 L 8 0 L 8 8 L 0 8 Z" fill="#000000" transform="matrix(1,0,0,1,136,112)"></path>
   <path d="M 0 0 L 8 0 L 8 8 L 0 8 Z" fill="#000000" transform="matrix(1,0,0,1,144,112)"></path>
   <path d="M 0 0 L 8 0 L 8 8 L 0 8 Z" fill="transparent" transform="matrix(1,0,0,1,152,112)"></path>
   <path d="M 0 0 L 8 0 L 8 8 L 0 8 Z" fill="#000000" transform="matrix(1,0,0,1,160,112)"></path>
   <path d="M 0 0 L 8 0 L 8 8 L 0 8 Z" fill="#000000" transform="matrix(1,0,0,1,168,112)"></path>
   <path d="M 0 0 L 8 0 L 8 8 L 0 8 Z" fill="#000000" transform="matrix(1,0,0,1,176,112)"></path>
   <path d="M 0 0 L 8 0 L 8 8 L 0 8 Z" fill="#000000" transform="matrix(1,0,0,1,184,112)"></path>
   <path d="M 0 0 L 8 0 L 8 8 L 0 8 Z" fill="#000000" transform="matrix(1,0,0,1,192,112)"></path>
   <path d="M 0 0 L 8 0 L 8 8 L 0 8 Z" fill="#000000" transform="matrix(1,0,0,1,0,120)"></path>
   <path d="M 0 0 L 8 0 L 8 8 L 0 8 Z" fill="transparent" transform="matrix(1,0,0,1,8,120)"></path>
   <path d="M 0 0 L 8 0 L 8 8 L 0 8 Z" fill="#000000" transform="matrix(1,0,0,1,16,120)"></path>
   <path d="M 0 0 L 8 0 L 8 8 L 0 8 Z" fill="transparent" transform="matrix(1,0,0,1,24,120)"></path>
   <path d="M 0 0 L 8 0 L 8 8 L 0 8 Z" fill="transparent" transform="matrix(1,0,0,1,32,120)"></path>
   <path d="M 0 0 L 8 0 L 8 8 L 0 8 Z" fill="#000000" transform="matrix(1,0,0,1,40,120)"></path>
   <path d="M 0 0 L 8 0 L 8 8 L 0 8 Z" fill="transparent" transform="matrix(1,0,0,1,48,120)"></path>
   <path d="M 0 0 L 8 0 L 8 8 L 0 8 Z" fill="#000000" transform="matrix(1,0,0,1,56,120)"></path>
   <path d="M 0 0 L 8 0 L 8 8 L 0 8 Z" fill="#000000" transform="matrix(1,0,0,1,64,120)"></path>
   <path d="M 0 0 L 8 0 L 8 8 L 0 8 Z" fill="transparent" transform="matrix(1,0,0,1,72,120)"></path>
   <path d="M 0 0 L 8 0 L 8 8 L 0 8 Z" fill="#000000" transform="matrix(1,0,0,1,80,120)"></path>
   <path d="M 0 0 L 8 0 L 8 8 L 0 8 Z" fill="transparent" transform="matrix(1,0,0,1,88,120)"></path>
   <path d="M 0 0 L 8 0 L 8 8 L 0 8 Z" fill="#000000" transform="matrix(1,0,0,1,96,120)"></path>
   <path d="M 0 0 L 8 0 L 8 8 L 0 8 Z" fill="transparent" transform="matrix(1,0,0,1,104,120)"></path>
   <path d="M 0 0 L 8 0 L 8 8 L 0 8 Z" fill="transparent" transform="matrix(1,0,0,1,112,120)"></path>
   <path d="M 0 0 L 8 0 L 8 8 L 0 8 Z" fill="#000000" transform="matrix(1,0,0,1,120,120)"></path>
   <path d="M 0 0 L 8 0 L 8 8 L 0 8 Z" fill="transparent" transform="matrix(1,0,0,1,128,120)"></path>
   <path d="M 0 0 L 8 0 L 8 8 L 0 8 Z" fill="transparent" transform="matrix(1,0,0,1,136,120)"></path>
   <path d="M 0 0 L 8 0 L 8 8 L 0 8 Z" fill="transparent" transform="matrix(1,0,0,1,144,120)"></path>
   <path d="M 0 0 L 8 0 L 8 8 L 0 8 Z" fill="#000000" transform="matrix(1,0,0,1,152,120)"></path>
   <path d="M 0 0 L 8 0 L 8 8 L 0 8 Z" fill="transparent" transform="matrix(1,0,0,1,160,120)"></path>
   <path d="M 0 0 L 8 0 L 8 8 L 0 8 Z" fill="#000000" transform="matrix(1,0,0,1,168,120)"></path>
   <path d="M 0 0 L 8 0 L 8 8 L 0 8 Z" fill="#000000" transform="matrix(1,0,0,1,176,120)"></path>
   <path d="M 0 0 L 8 0 L 8 8 L 0 8 Z" fill="transparent" transform="matrix(1,0,0,1,184,120)"></path>
   <path d="M 0 0 L 8 0 L 8 8 L 0 8 Z" fill="#000000" transform="matrix(1,0,0,1,192,120)"></path>
   <path d="M 0 0 L 8 0 L 8 8 L 0 8 Z" fill="#000000" transform="matrix(1,0,0,1,0,128)"></path>
   <path d="M 0 0 L 8 0 L 8 8 L 0 8 Z" fill="transparent" transform="matrix(1,0,0,1,8,128)"></path>
   <path d="M 0 0 L 8 0 L 8 8 L 0 8 Z" fill="transparent" transform="matrix(1,0,0,1,16,128)"></path>
   <path d="M 0 0 L 8 0 L 8 8 L 0 8 Z" fill="#000000" transform="matrix(1,0,0,1,24,128)"></path>
   <path d="M 0 0 L 8 0 L 8 8 L 0 8 Z" fill="#000000" transform="matrix(1,0,0,1,32,128)"></path>
   <path d="M 0 0 L 8 0 L 8 8 L 0 8 Z" fill="transparent" transform="matrix(1,0,0,1,40,128)"></path>
   <path d="M 0 0 L 8 0 L 8 8 L 0 8 Z" fill="#000000" transform="matrix(1,0,0,1,48,128)"></path>
   <path d="M 0 0 L 8 0 L 8 8 L 0 8 Z" fill="transparent" transform="matrix(1,0,0,1,56,128)"></path>
   <path d="M 0 0 L 8 0 L 8 8 L 0 8 Z" fill="#000000" transform="matrix(1,0,0,1,64,128)"></path>
   <path d="M 0 0 L 8 0 L 8 8 L 0 8 Z" fill="transparent" transform="matrix(1,0,0,1,72,128)"></path>
   <path d="M 0 0 L 8 0 L 8 8 L 0 8 Z" fill="#000000" transform="matrix(1,0,0,1,80,128)"></path>
   <path d="M 0 0 L 8 0 L 8 8 L 0 8 Z" fill="#000000" transform="matrix(1,0,0,1,88,128)"></path>
   <path d="M 0 0 L 8 0 L 8 8 L 0 8 Z" fill="#000000" transform="matrix(1,0,0,1,96,128)"></path>
   <path d="M 0 0 L 8 0 L 8 8 L 0 8 Z" fill="#000000" transform="matrix(1,0,0,1,104,128)"></path>
   <path d="M 0 0 L 8 0 L 8 8 L 0 8 Z" fill="transparent" transform="matrix(1,0,0,1,112,128)"></path>
   <path d="M 0 0 L 8 0 L 8 8 L 0 8 Z" fill="transparent" transform="matrix(1,0,0,1,120,128)"></path>
   <path d="M 0 0 L 8 0 L 8 8 L 0 8 Z" fill="#000000" transform="matrix(1,0,0,1,128,128)"></path>
   <path d="M 0 0 L 8 0 L 8 8 L 0 8 Z" fill="#000000" transform="matrix(1,0,0,1,136,128)"></path>
   <path d="M 0 0 L 8 0 L 8 8 L 0 8 Z" fill="#000000" transform="matrix(1,0,0,1,144,128)"></path>
   <path d="M 0 0 L 8 0 L 8 8 L 0 8 Z" fill="#000000" transform="matrix(1,0,0,1,152,128)"></path>
   <path d="M 0 0 L 8 0 L 8 8 L 0 8 Z" fill="#000000" transform="matrix(1,0,0,1,160,128)"></path>
   <path d="M 0 0 L 8 0 L 8 8 L 0 8 Z" fill="transparent" transform="matrix(1,0,0,1,168,128)"></path>
   <path d="M 0 0 L 8 0 L 8 8 L 0 8 Z" fill="#000000" transform="matrix(1,0,0,1,176,128)"></path>
   <path d="M 0 0 L 8 0 L 8 8 L 0 8 Z" fill="#000000" transform="matrix(1,0,0,1,184,128)"></path>
   <path d="M 0 0 L 8 0 L 8 8 L 0 8 Z" fill="transparent" transform="matrix(1,0,0,1,192,128)"></path>
   <path d="M 0 0 L 8 0 L 8 8 L 0 8 Z" fill="transparent" transform="matrix(1,0,0,1,0,136)"></path>
   <path d="M 0 0 L 8 0 L 8 8 L 0 8 Z" fill="transparent" transform="matrix(1,0,0,1,8,136)"></path>
   <path d="M 0 0 L 8 0 L 8 8 L 0 8 Z" fill="transparent" transform="matrix(1,0,0,1,16,136)"></path>
   <path d="M 0 0 L 8 0 L 8 8 L 0 8 Z" fill="transparent" transform="matrix(1,0,0,1,24,136)"></path>
   <path d="M 0 0 L 8 0 L 8 8 L 0 8 Z" fill="transparent" transform="matrix(1,0,0,1,32,136)"></path>
   <path d="M 0 0 L 8 0 L 8 8 L 0 8 Z" fill="transparent" transform="matrix(1,0,0,1,40,136)"></path>
   <path d="M 0 0 L 8 0 L 8 8 L 0 8 Z" fill="transparent" transform="matrix(1,0,0,1,48,136)"></path>
   <path d="M 0 0 L 8 0 L 8 8 L 0 8 Z" fill="transparent" transform="matrix(1,0,0,1,56,136)"></path>
   <path d="M 0 0 L 8 0 L 8 8 L 0 8 Z" fill="#000000" transform="matrix(1,0,0,1,64,136)"></path>
   <path d="M 0 0 L 8 0 L 8 8 L 0 8 Z" fill="transparent" transform="matrix(1,0,0,1,72,136)"></path>
   <path d="M 0 0 L 8 0 L 8 8 L 0 8 Z" fill="transparent" transform="matrix(1,0,0,1,80,136)"></path>
   <path d="M 0 0 L 8 0 L 8 8 L 0 8 Z" fill="transparent" transform="matrix(1,0,0,1,88,136)"></path>
   <path d="M 0 0 L 8 0 L 8 8 L 0 8 Z" fill="transparent" transform="matrix(1,0,0,1,96,136)"></path>
   <path d="M 0 0 L 8 0 L 8 8 L 0 8 Z" fill="#000000" transform="matrix(1,0,0,1,104,136)"></path>
   <path d="M 0 0 L 8 0 L 8 8 L 0 8 Z" fill="transparent" transform="matrix(1,0,0,1,112,136)"></path>
   <path d="M 0 0 L 8 0 L 8 8 L 0 8 Z" fill="transparent" transform="matrix(1,0,0,1,120,136)"></path>
   <path d="M 0 0 L 8 0 L 8 8 L 0 8 Z" fill="#000000" transform="matrix(1,0,0,1,128,136)"></path>
   <path d="M 0 0 L 8 0 L 8 8 L 0 8 Z" fill="transparent" transform="matrix(1,0,0,1,136,136)"></path>
   <path d="M 0 0 L 8 0 L 8 8 L 0 8 Z" fill="transparent" transform="matrix(1,0,0,1,144,136)"></path>
   <path d="M 0 0 L 8 0 L 8 8 L 0 8 Z" fill="transparent" transform="matrix(1,0,0,1,152,136)"></path>
   <path d="M 0 0 L 8 0 L 8 8 L 0 8 Z" fill="#000000" transform="matrix(1,0,0,1,160,136)"></path>
   <path d="M 0 0 L 8 0 L 8 8 L 0 8 Z" fill="transparent" transform="matrix(1,0,0,1,168,136)"></path>
   <path d="M 0 0 L 8 0 L 8 8 L 0 8 Z" fill="#000000" transform="matrix(1,0,0,1,176,136)"></path>
   <path d="M 0 0 L 8 0 L 8 8 L 0 8 Z" fill="#000000" transform="matrix(1,0,0,1,184,136)"></path>
   <path d="M 0 0 L 8 0 L 8 8 L 0 8 Z" fill="transparent" transform="matrix(1,0,0,1,192,136)"></path>
   <path d="M 0 0 L 8 0 L 8 8 L 0 8 Z" fill="#000000" transform="matrix(1,0,0,1,0,144)"></path>
   <path d="M 0 0 L 8 0 L 8 8 L 0 8 Z" fill="#000000" transform="matrix(1,0,0,1,8,144)"></path>
   <path d="M 0 0 L 8 0 L 8 8 L 0 8 Z" fill="#000000" transform="matrix(1,0,0,1,16,144)"></path>
   <path d="M 0 0 L 8 0 L 8 8 L 0 8 Z" fill="#000000" transform="matrix(1,0,0,1,24,144)"></path>
   <path d="M 0 0 L 8 0 L 8 8 L 0 8 Z" fill="#000000" transform="matrix(1,0,0,1,32,144)"></path>
   <path d="M 0 0 L 8 0 L 8 8 L 0 8 Z" fill="#000000" transform="matrix(1,0,0,1,40,144)"></path>
   <path d="M 0 0 L 8 0 L 8 8 L 0 8 Z" fill="#000000" transform="matrix(1,0,0,1,48,144)"></path>
   <path d="M 0 0 L 8 0 L 8 8 L 0 8 Z" fill="transparent" transform="matrix(1,0,0,1,56,144)"></path>
   <path d="M 0 0 L 8 0 L 8 8 L 0 8 Z" fill="transparent" transform="matrix(1,0,0,1,64,144)"></path>
   <path d="M 0 0 L 8 0 L 8 8 L 0 8 Z" fill="#000000" transform="matrix(1,0,0,1,72,144)"></path>
   <path d="M 0 0 L 8 0 L 8 8 L 0 8 Z" fill="transparent" transform="matrix(1,0,0,1,80,144)"></path>
   <path d="M 0 0 L 8 0 L 8 8 L 0 8 Z" fill="#000000" transform="matrix(1,0,0,1,88,144)"></path>
   <path d="M 0 0 L 8 0 L 8 8 L 0 8 Z" fill="#000000" transform="matrix(1,0,0,1,96,144)"></path>
   <path d="M 0 0 L 8 0 L 8 8 L 0 8 Z" fill="transparent" transform="matrix(1,0,0,1,104,144)"></path>
   <path d="M 0 0 L 8 0 L 8 8 L 0 8 Z" fill="transparent" transform="matrix(1,0,0,1,112,144)"></path>
   <path d="M 0 0 L 8 0 L 8 8 L 0 8 Z" fill="transparent" transform="matrix(1,0,0,1,120,144)"></path>
   <path d="M 0 0 L 8 0 L 8 8 L 0 8 Z" fill="#000000" transform="matrix(1,0,0,1,128,144)"></path>
   <path d="M 0 0 L 8 0 L 8 8 L 0 8 Z" fill="transparent" transform="matrix(1,0,0,1,136,144)"></path>
   <path d="M 0 0 L 8 0 L 8 8 L 0 8 Z" fill="#000000" transform="matrix(1,0,0,1,144,144)"></path>
   <path d="M 0 0 L 8 0 L 8 8 L 0 8 Z" fill="transparent" transform="matrix(1,0,0,1,152,144)"></path>
   <path d="M 0 0 L 8 0 L 8 8 L 0 8 Z" fill="#000000" transform="matrix(1,0,0,1,160,144)"></path>
   <path d="M 0 0 L 8 0 L 8 8 L 0 8 Z" fill="transparent" transform="matrix(1,0,0,1,168,144)"></path>
   <path d="M 0 0 L 8 0 L 8 8 L 0 8 Z" fill="transparent" transform="matrix(1,0,0,1,176,144)"></path>
   <path d="M 0 0 L 8 0 L 8 8 L 0 8 Z" fill="transparent" transform="matrix(1,0,0,1,184,144)"></path>
   <path d="M 0 0 L 8 0 L 8 8 L 0 8 Z" fill="#000000" transform="matrix(1,0,0,1,192,144)"></path>
   <path d="M 0 0 L 8 0 L 8 8 L 0 8 Z" fill="#000000" transform="matrix(1,0,0,1,0,152)"></path>
   <path d="M 0 0 L 8 0 L 8 8 L 0 8 Z" fill="transparent" transform="matrix(1,0,0,1,8,152)"></path>
   <path d="M 0 0 L 8 0 L 8 8 L 0 8 Z" fill="transparent" transform="matrix(1,0,0,1,16,152)"></path>
   <path d="M 0 0 L 8 0 L 8 8 L 0 8 Z" fill="transparent" transform="matrix(1,0,0,1,24,152)"></path>
   <path d="M 0 0 L 8 0 L 8 8 L 0 8 Z" fill="transparent" transform="matrix(1,0,0,1,32,152)"></path>
   <path d="M 0 0 L 8 0 L 8 8 L 0 8 Z" fill="transparent" transform="matrix(1,0,0,1,40,152)"></path>
   <path d="M 0 0 L 8 0 L 8 8 L 0 8 Z" fill="#000000" transform="matrix(1,0,0,1,48,152)"></path>
   <path d="M 0 0 L 8 0 L 8 8 L 0 8 Z" fill="transparent" transform="matrix(1,0,0,1,56,152)"></path>
   <path d="M 0 0 L 8 0 L 8 8 L 0 8 Z" fill="transparent" transform="matrix(1,0,0,1,64,152)"></path>
   <path d="M 0 0 L 8 0 L 8 8 L 0 8 Z" fill="#000000" transform="matrix(1,0,0,1,72,152)"></path>
   <path d="M 0 0 L 8 0 L 8 8 L 0 8 Z" fill="transparent" transform="matrix(1,0,0,1,80,152)"></path>
   <path d="M 0 0 L 8 0 L 8 8 L 0 8 Z" fill="transparent" transform="matrix(1,0,0,1,88,152)"></path>
   <path d="M 0 0 L 8 0 L 8 8 L 0 8 Z" fill="#000000" transform="matrix(1,0,0,1,96,152)"></path>
   <path d="M 0 0 L 8 0 L 8 8 L 0 8 Z" fill="#000000" transform="matrix(1,0,0,1,104,152)"></path>
   <path d="M 0 0 L 8 0 L 8 8 L 0 8 Z" fill="#000000" transform="matrix(1,0,0,1,112,152)"></path>
   <path d="M 0 0 L 8 0 L 8 8 L 0 8 Z" fill="transparent" transform="matrix(1,0,0,1,120,152)"></path>
   <path d="M 0 0 L 8 0 L 8 8 L 0 8 Z" fill="#000000" transform="matrix(1,0,0,1,128,152)"></path>
   <path d="M 0 0 L 8 0 L 8 8 L 0 8 Z" fill="transparent" transform="matrix(1,0,0,1,136,152)"></path>
   <path d="M 0 0 L 8 0 L 8 8 L 0 8 Z" fill="transparent" transform="matrix(1,0,0,1,144,152)"></path>
   <path d="M 0 0 L 8 0 L 8 8 L 0 8 Z" fill="transparent" transform="matrix(1,0,0,1,152,152)"></path>
   <path d="M 0 0 L 8 0 L 8 8 L 0 8 Z" fill="#000000" transform="matrix(1,0,0,1,160,152)"></path>
   <path d="M 0 0 L 8 0 L 8 8 L 0 8 Z" fill="transparent" transform="matrix(1,0,0,1,168,152)"></path>
   <path d="M 0 0 L 8 0 L 8 8 L 0 8 Z" fill="transparent" transform="matrix(1,0,0,1,176,152)"></path>
   <path d="M 0 0 L 8 0 L 8 8 L 0 8 Z" fill="#000000" transform="matrix(1,0,0,1,184,152)"></path>
   <path d="M 0 0 L 8 0 L 8 8 L 0 8 Z" fill="#000000" transform="matrix(1,0,0,1,192,152)"></path>
   <path d="M 0 0 L 8 0 L 8 8 L 0 8 Z" fill="#000000" transform="matrix(1,0,0,1,0,160)"></path>
   <path d="M 0 0 L 8 0 L 8 8 L 0 8 Z" fill="transparent" transform="matrix(1,0,0,1,8,160)"></path>
   <path d="M 0 0 L 8 0 L 8 8 L 0 8 Z" fill="#000000" transform="matrix(1,0,0,1,16,160)"></path>
   <path d="M 0 0 L 8 0 L 8 8 L 0 8 Z" fill="#000000" transform="matrix(1,0,0,1,24,160)"></path>
   <path d="M 0 0 L 8 0 L 8 8 L 0 8 Z" fill="#000000" transform="matrix(1,0,0,1,32,160)"></path>
   <path d="M 0 0 L 8 0 L 8 8 L 0 8 Z" fill="transparent" transform="matrix(1,0,0,1,40,160)"></path>
   <path d="M 0 0 L 8 0 L 8 8 L 0 8 Z" fill="#000000" transform="matrix(1,0,0,1,48,160)"></path>
   <path d="M 0 0 L 8 0 L 8 8 L 0 8 Z" fill="transparent" transform="matrix(1,0,0,1,56,160)"></path>
   <path d="M 0 0 L 8 0 L 8 8 L 0 8 Z" fill="#000000" transform="matrix(1,0,0,1,64,160)"></path>
   <path d="M 0 0 L 8 0 L 8 8 L 0 8 Z" fill="transparent" transform="matrix(1,0,0,1,72,160)"></path>
   <path d="M 0 0 L 8 0 L 8 8 L 0 8 Z" fill="transparent" transform="matrix(1,0,0,1,80,160)"></path>
   <path d="M 0 0 L 8 0 L 8 8 L 0 8 Z" fill="#000000" transform="matrix(1,0,0,1,88,160)"></path>
   <path d="M 0 0 L 8 0 L 8 8 L 0 8 Z" fill="#000000" transform="matrix(1,0,0,1,96,160)"></path>
   <path d="M 0 0 L 8 0 L 8 8 L 0 8 Z" fill="transparent" transform="matrix(1,0,0,1,104,160)"></path>
   <path d="M 0 0 L 8 0 L 8 8 L 0 8 Z" fill="#000000" transform="matrix(1,0,0,1,112,160)"></path>
   <path d="M 0 0 L 8 0 L 8 8 L 0 8 Z" fill="#000000" transform="matrix(1,0,0,1,120,160)"></path>
   <path d="M 0 0 L 8 0 L 8 8 L 0 8 Z" fill="#000000" transform="matrix(1,0,0,1,128,160)"></path>
   <path d="M 0 0 L 8 0 L 8 8 L 0 8 Z" fill="#000000" transform="matrix(1,0,0,1,136,160)"></path>
   <path d="M 0 0 L 8 0 L 8 8 L 0 8 Z" fill="#000000" transform="matrix(1,0,0,1,144,160)"></path>
   <path d="M 0 0 L 8 0 L 8 8 L 0 8 Z" fill="#000000" transform="matrix(1,0,0,1,152,160)"></path>
   <path d="M 0 0 L 8 0 L 8 8 L 0 8 Z" fill="#000000" transform="matrix(1,0,0,1,160,160)"></path>
   <path d="M 0 0 L 8 0 L 8 8 L 0 8 Z" fill="transparent" transform="matrix(1,0,0,1,168,160)"></path>
   <path d="M 0 0 L 8 0 L 8 8 L 0 8 Z" fill="transparent" transform="matrix(1,0,0,1,176,160)"></path>
   <path d="M 0 0 L 8 0 L 8 8 L 0 8 Z" fill="#000000" transform="matrix(1,0,0,1,184,160)"></path>
   <path d="M 0 0 L 8 0 L 8 8 L 0 8 Z" fill="transparent" transform="matrix(1,0,0,1,192,160)"></path>
   <path d="M 0 0 L 8 0 L 8 8 L 0 8 Z" fill="#000000" transform="matrix(1,0,0,1,0,168)"></path>
   <path d="M 0 0 L 8 0 L 8 8 L 0 8 Z" fill="transparent" transform="matrix(1,0,0,1,8,168)"></path>
   <path d="M 0 0 L 8 0 L 8 8 L 0 8 Z" fill="#000000" transform="matrix(1,0,0,1,16,168)"></path>
   <path d="M 0 0 L 8 0 L 8 8 L 0 8 Z" fill="#000000" transform="matrix(1,0,0,1,24,168)"></path>
   <path d="M 0 0 L 8 0 L 8 8 L 0 8 Z" fill="#000000" transform="matrix(1,0,0,1,32,168)"></path>
   <path d="M 0 0 L 8 0 L 8 8 L 0 8 Z" fill="transparent" transform="matrix(1,0,0,1,40,168)"></path>
   <path d="M 0 0 L 8 0 L 8 8 L 0 8 Z" fill="#000000" transform="matrix(1,0,0,1,48,168)"></path>
   <path d="M 0 0 L 8 0 L 8 8 L 0 8 Z" fill="transparent" transform="matrix(1,0,0,1,56,168)"></path>
   <path d="M 0 0 L 8 0 L 8 8 L 0 8 Z" fill="#000000" transform="matrix(1,0,0,1,64,168)"></path>
   <path d="M 0 0 L 8 0 L 8 8 L 0 8 Z" fill="#000000" transform="matrix(1,0,0,1,72,168)"></path>
   <path d="M 0 0 L 8 0 L 8 8 L 0 8 Z" fill="transparent" transform="matrix(1,0,0,1,80,168)"></path>
   <path d="M 0 0 L 8 0 L 8 8 L 0 8 Z" fill="#000000" transform="matrix(1,0,0,1,88,168)"></path>
   <path d="M 0 0 L 8 0 L 8 8 L 0 8 Z" fill="transparent" transform="matrix(1,0,0,1,96,168)"></path>
   <path d="M 0 0 L 8 0 L 8 8 L 0 8 Z" fill="#000000" transform="matrix(1,0,0,1,104,168)"></path>
   <path d="M 0 0 L 8 0 L 8 8 L 0 8 Z" fill="#000000" transform="matrix(1,0,0,1,112,168)"></path>
   <path d="M 0 0 L 8 0 L 8 8 L 0 8 Z" fill="transparent" transform="matrix(1,0,0,1,120,168)"></path>
   <path d="M 0 0 L 8 0 L 8 8 L 0 8 Z" fill="transparent" transform="matrix(1,0,0,1,128,168)"></path>
   <path d="M 0 0 L 8 0 L 8 8 L 0 8 Z" fill="#000000" transform="matrix(1,0,0,1,136,168)"></path>
   <path d="M 0 0 L 8 0 L 8 8 L 0 8 Z" fill="#000000" transform="matrix(1,0,0,1,144,168)"></path>
   <path d="M 0 0 L 8 0 L 8 8 L 0 8 Z" fill="transparent" transform="matrix(1,0,0,1,152,168)"></path>
   <path d="M 0 0 L 8 0 L 8 8 L 0 8 Z" fill="transparent" transform="matrix(1,0,0,1,160,168)"></path>
   <path d="M 0 0 L 8 0 L 8 8 L 0 8 Z" fill="transparent" transform="matrix(1,0,0,1,168,168)"></path>
   <path d="M 0 0 L 8 0 L 8 8 L 0 8 Z" fill="transparent" transform="matrix(1,0,0,1,176,168)"></path>
   <path d="M 0 0 L 8 0 L 8 8 L 0 8 Z" fill="#000000" transform="matrix(1,0,0,1,184,168)"></path>
   <path d="M 0 0 L 8 0 L 8 8 L 0 8 Z" fill="#000000" transform="matrix(1,0,0,1,192,168)"></path>
   <path d="M 0 0 L 8 0 L 8 8 L 0 8 Z" fill="#000000" transform="matrix(1,0,0,1,0,176)"></path>
   <path d="M 0 0 L 8 0 L 8 8 L 0 8 Z" fill="transparent" transform="matrix(1,0,0,1,8,176)"></path>
   <path d="M 0 0 L 8 0 L 8 8 L 0 8 Z" fill="#000000" transform="matrix(1,0,0,1,16,176)"></path>
   <path d="M 0 0 L 8 0 L 8 8 L 0 8 Z" fill="#000000" transform="matrix(1,0,0,1,24,176)"></path>
   <path d="M 0 0 L 8 0 L 8 8 L 0 8 Z" fill="#000000" transform="matrix(1,0,0,1,32,176)"></path>
   <path d="M 0 0 L 8 0 L 8 8 L 0 8 Z" fill="transparent" transform="matrix(1,0,0,1,40,176)"></path>
   <path d="M 0 0 L 8 0 L 8 8 L 0 8 Z" fill="#000000" transform="matrix(1,0,0,1,48,176)"></path>
   <path d="M 0 0 L 8 0 L 8 8 L 0 8 Z" fill="transparent" transform="matrix(1,0,0,1,56,176)"></path>
   <path d="M 0 0 L 8 0 L 8 8 L 0 8 Z" fill="transparent" transform="matrix(1,0,0,1,64,176)"></path>
   <path d="M 0 0 L 8 0 L 8 8 L 0 8 Z" fill="#000000" transform="matrix(1,0,0,1,72,176)"></path>
   <path d="M 0 0 L 8 0 L 8 8 L 0 8 Z" fill="transparent" transform="matrix(1,0,0,1,80,176)"></path>
   <path d="M 0 0 L 8 0 L 8 8 L 0 8 Z" fill="#000000" transform="matrix(1,0,0,1,88,176)"></path>
   <path d="M 0 0 L 8 0 L 8 8 L 0 8 Z" fill="transparent" transform="matrix(1,0,0,1,96,176)"></path>
   <path d="M 0 0 L 8 0 L 8 8 L 0 8 Z" fill="#000000" transform="matrix(1,0,0,1,104,176)"></path>
   <path d="M 0 0 L 8 0 L 8 8 L 0 8 Z" fill="#000000" transform="matrix(1,0,0,1,112,176)"></path>
   <path d="M 0 0 L 8 0 L 8 8 L 0 8 Z" fill="#000000" transform="matrix(1,0,0,1,120,176)"></path>
   <path d="M 0 0 L 8 0 L 8 8 L 0 8 Z" fill="#000000" transform="matrix(1,0,0,1,128,176)"></path>
   <path d="M 0 0 L 8 0 L 8 8 L 0 8 Z" fill="#000000" transform="matrix(1,0,0,1,136,176)"></path>
   <path d="M 0 0 L 8 0 L 8 8 L 0 8 Z" fill="transparent" transform="matrix(1,0,0,1,144,176)"></path>
   <path d="M 0 0 L 8 0 L 8 8 L 0 8 Z" fill="transparent" transform="matrix(1,0,0,1,152,176)"></path>
   <path d="M 0 0 L 8 0 L 8 8 L 0 8 Z" fill="#000000" transform="matrix(1,0,0,1,160,176)"></path>
   <path d="M 0 0 L 8 0 L 8 8 L 0 8 Z" fill="#000000" transform="matrix(1,0,0,1,168,176)"></path>
   <path d="M 0 0 L 8 0 L 8 8 L 0 8 Z" fill="#000000" transform="matrix(1,0,0,1,176,176)"></path>
   <path d="M 0 0 L 8 0 L 8 8 L 0 8 Z" fill="#000000" transform="matrix(1,0,0,1,184,176)"></path>
   <path d="M 0 0 L 8 0 L 8 8 L 0 8 Z" fill="#000000" transform="matrix(1,0,0,1,192,176)"></path>
   <path d="M 0 0 L 8 0 L 8 8 L 0 8 Z" fill="#000000" transform="matrix(1,0,0,1,0,184)"></path>
   <path d="M 0 0 L 8 0 L 8 8 L 0 8 Z" fill="transparent" transform="matrix(1,0,0,1,8,184)"></path>
   <path d="M 0 0 L 8 0 L 8 8 L 0 8 Z" fill="transparent" transform="matrix(1,0,0,1,16,184)"></path>
   <path d="M 0 0 L 8 0 L 8 8 L 0 8 Z" fill="transparent" transform="matrix(1,0,0,1,24,184)"></path>
   <path d="M 0 0 L 8 0 L 8 8 L 0 8 Z" fill="transparent" transform="matrix(1,0,0,1,32,184)"></path>
   <path d="M 0 0 L 8 0 L 8 8 L 0 8 Z" fill="transparent" transform="matrix(1,0,0,1,40,184)"></path>
   <path d="M 0 0 L 8 0 L 8 8 L 0 8 Z" fill="#000000" transform="matrix(1,0,0,1,48,184)"></path>
   <path d="M 0 0 L 8 0 L 8 8 L 0 8 Z" fill="transparent" transform="matrix(1,0,0,1,56,184)"></path>
   <path d="M 0 0 L 8 0 L 8 8 L 0 8 Z" fill="#000000" transform="matrix(1,0,0,1,64,184)"></path>
   <path d="M 0 0 L 8 0 L 8 8 L 0 8 Z" fill="#000000" transform="matrix(1,0,0,1,72,184)"></path>
   <path d="M 0 0 L 8 0 L 8 8 L 0 8 Z" fill="#000000" transform="matrix(1,0,0,1,80,184)"></path>
   <path d="M 0 0 L 8 0 L 8 8 L 0 8 Z" fill="transparent" transform="matrix(1,0,0,1,88,184)"></path>
   <path d="M 0 0 L 8 0 L 8 8 L 0 8 Z" fill="transparent" transform="matrix(1,0,0,1,96,184)"></path>
   <path d="M 0 0 L 8 0 L 8 8 L 0 8 Z" fill="transparent" transform="matrix(1,0,0,1,104,184)"></path>
   <path d="M 0 0 L 8 0 L 8 8 L 0 8 Z" fill="#000000" transform="matrix(1,0,0,1,112,184)"></path>
   <path d="M 0 0 L 8 0 L 8 8 L 0 8 Z" fill="#000000" transform="matrix(1,0,0,1,120,184)"></path>
   <path d="M 0 0 L 8 0 L 8 8 L 0 8 Z" fill="transparent" transform="matrix(1,0,0,1,128,184)"></path>
   <path d="M 0 0 L 8 0 L 8 8 L 0 8 Z" fill="#000000" transform="matrix(1,0,0,1,136,184)"></path>
   <path d="M 0 0 L 8 0 L 8 8 L 0 8 Z" fill="#000000" transform="matrix(1,0,0,1,144,184)"></path>
   <path d="M 0 0 L 8 0 L 8 8 L 0 8 Z" fill="#000000" transform="matrix(1,0,0,1,152,184)"></path>
   <path d="M 0 0 L 8 0 L 8 8 L 0 8 Z" fill="#000000" transform="matrix(1,0,0,1,160,184)"></path>
   <path d="M 0 0 L 8 0 L 8 8 L 0 8 Z" fill="transparent" transform="matrix(1,0,0,1,168,184)"></path>
   <path d="M 0 0 L 8 0 L 8 8 L 0 8 Z" fill="#000000" transform="matrix(1,0,0,1,176,184)"></path>
   <path d="M 0 0 L 8 0 L 8 8 L 0 8 Z" fill="#000000" transform="matrix(1,0,0,1,184,184)"></path>
   <path d="M 0 0 L 8 0 L 8 8 L 0 8 Z" fill="#000000" transform="matrix(1,0,0,1,192,184)"></path>
   <path d="M 0 0 L 8 0 L 8 8 L 0 8 Z" fill="#000000" transform="matrix(1,0,0,1,0,192)"></path>
   <path d="M 0 0 L 8 0 L 8 8 L 0 8 Z" fill="#000000" transform="matrix(1,0,0,1,8,192)"></path>
   <path d="M 0 0 L 8 0 L 8 8 L 0 8 Z" fill="#000000" transform="matrix(1,0,0,1,16,192)"></path>
   <path d="M 0 0 L 8 0 L 8 8 L 0 8 Z" fill="#000000" transform="matrix(1,0,0,1,24,192)"></path>
   <path d="M 0 0 L 8 0 L 8 8 L 0 8 Z" fill="#000000" transform="matrix(1,0,0,1,32,192)"></path>
   <path d="M 0 0 L 8 0 L 8 8 L 0 8 Z" fill="#000000" transform="matrix(1,0,0,1,40,192)"></path>
   <path d="M 0 0 L 8 0 L 8 8 L 0 8 Z" fill="#000000" transform="matrix(1,0,0,1,48,192)"></path>
   <path d="M 0 0 L 8 0 L 8 8 L 0 8 Z" fill="transparent" transform="matrix(1,0,0,1,56,192)"></path>
   <path d="M 0 0 L 8 0 L 8 8 L 0 8 Z" fill="#000000" transform="matrix(1,0,0,1,64,192)"></path>
   <path d="M 0 0 L 8 0 L 8 8 L 0 8 Z" fill="transparent" transform="matrix(1,0,0,1,72,192)"></path>
   <path d="M 0 0 L 8 0 L 8 8 L 0 8 Z" fill="transparent" transform="matrix(1,0,0,1,80,192)"></path>
   <path d="M 0 0 L 8 0 L 8 8 L 0 8 Z" fill="transparent" transform="matrix(1,0,0,1,88,192)"></path>
   <path d="M 0 0 L 8 0 L 8 8 L 0 8 Z" fill="#000000" transform="matrix(1,0,0,1,96,192)"></path>
   <path d="M 0 0 L 8 0 L 8 8 L 0 8 Z" fill="transparent" transform="matrix(1,0,0,1,104,192)"></path>
   <path d="M 0 0 L 8 0 L 8 8 L 0 8 Z" fill="#000000" transform="matrix(1,0,0,1,112,192)"></path>
   <path d="M 0 0 L 8 0 L 8 8 L 0 8 Z" fill="transparent" transform="matrix(1,0,0,1,120,192)"></path>
   <path d="M 0 0 L 8 0 L 8 8 L 0 8 Z" fill="#000000" transform="matrix(1,0,0,1,128,192)"></path>
   <path d="M 0 0 L 8 0 L 8 8 L 0 8 Z" fill="transparent" transform="matrix(1,0,0,1,136,192)"></path>
   <path d="M 0 0 L 8 0 L 8 8 L 0 8 Z" fill="#000000" transform="matrix(1,0,0,1,144,192)"></path>
   <path d="M 0 0 L 8 0 L 8 8 L 0 8 Z" fill="transparent" transform="matrix(1,0,0,1,152,192)"></path>
   <path d="M 0 0 L 8 0 L 8 8 L 0 8 Z" fill="transparent" transform="matrix(1,0,0,1,160,192)"></path>
   <path d="M 0 0 L 8 0 L 8 8 L 0 8 Z" fill="#000000" transform="matrix(1,0,0,1,168,192)"></path>
   <path d="M 0 0 L 8 0 L 8 8 L 0 8 Z" fill="transparent" transform="matrix(1,0,0,1,176,192)"></path>
   <path d="M 0 0 L 8 0 L 8 8 L 0 8 Z" fill="transparent" transform="matrix(1,0,0,1,184,192)"></path>
   <path d="M 0 0 L 8 0 L 8 8 L 0 8 Z" fill="#000000" transform="matrix(1,0,0,1,192,192)"></path>
</svg>